<?xml version="1.0" encoding="UTF-8" standalone="no"?>
<svg
   xmlns:dc="http://purl.org/dc/elements/1.1/"
   xmlns:cc="http://creativecommons.org/ns#"
   xmlns:rdf="http://www.w3.org/1999/02/22-rdf-syntax-ns#"
   xmlns:svg="http://www.w3.org/2000/svg"
   xmlns="http://www.w3.org/2000/svg"
   xmlns:sodipodi="http://sodipodi.sourceforge.net/DTD/sodipodi-0.dtd"
   xmlns:inkscape="http://www.inkscape.org/namespaces/inkscape"
   version="1.1"
   id="Layer_1"
   x="0px"
   y="0px"
   width="63"
   height="50"
   viewBox="0 0 63 50"
   enable-background="new 0 0 50 50"
   xml:space="preserve"
   class="svg-logo-mm"
   sodipodi:docname="logo2.svg"
   inkscape:version="1.0.1 (1.0.1+r73)"><metadata
   id="metadata923"><rdf:RDF><cc:Work
       rdf:about=""><dc:format>image/svg+xml</dc:format><dc:type
         rdf:resource="http://purl.org/dc/dcmitype/StillImage" /><dc:title></dc:title></cc:Work></rdf:RDF></metadata><defs
   id="defs921" /><sodipodi:namedview
   pagecolor="#ffffff"
   bordercolor="#666666"
   borderopacity="1"
   objecttolerance="10"
   gridtolerance="10"
   guidetolerance="10"
   inkscape:pageopacity="0"
   inkscape:pageshadow="2"
   inkscape:window-width="1366"
   inkscape:window-height="719"
   id="namedview919"
   showgrid="false"
   inkscape:zoom="3.8042345"
   inkscape:cx="6.0327776"
   inkscape:cy="36.819901"
   inkscape:window-x="0"
   inkscape:window-y="25"
   inkscape:window-maximized="1"
   inkscape:current-layer="Layer_1" />
  <g
   id="g916">
    <path
   id="polygon896"
   d="m 25.103493,24.154697 h -7.678661 v -3.780878 h 5.528785 v -2.070686 h -5.528785 v -3.778448 h 7.678661 V 12.454 h -9.945827 v 13.771389 h 9.945827 z"
   style="fill:#ffffff;stroke-width:1.23065" />
    <path
   d="m 24.92631,30.138554 c -0.739911,-0.70762 -1.675729,-0.998943 -3.245402,-0.998943 h -0.002 -2.355749 -0.002 c -1.569667,0 -2.506729,0.291323 -3.246644,0.998943 -0.723697,0.673643 -0.995708,1.562117 -0.995708,3.130311 v 5.512893 c 0,1.564546 0.272011,2.457877 0.995708,3.138822 0.739915,0.699127 1.676977,0.987989 3.246644,0.987989 h 0.002 2.355749 0.002 c 1.569673,0 2.505491,-0.288862 3.245402,-0.987989 0.723693,-0.680945 0.99695,-1.574276 0.99695,-3.138822 v -5.512893 c -10e-4,-1.566982 -0.273257,-2.456668 -0.99695,-3.130311 z m -1.270216,8.228126 c 0,1.279304 -0.08499,1.708976 -0.427975,2.06459 -0.336893,0.33016 -0.734925,0.407827 -2.116185,0.407827 h -1.222797 c -1.381259,0 -1.780538,-0.0764 -2.116182,-0.407827 -0.343125,-0.355614 -0.427978,-0.785286 -0.427978,-2.06459 v -4.677851 c 0,-1.287818 0.08343,-1.7187 0.427978,-2.068259 0.33689,-0.325295 0.734923,-0.41147 2.116182,-0.41147 h 1.221551 c 1.381258,0 1.780538,0.08613 2.116183,0.41147 0.34189,0.349559 0.427977,0.781651 0.427977,2.068259 v 4.677851 z"
   id="path898"
   style="fill:#ffffff;stroke-width:1.23065" />
    <path
   d="M 36.839833,13.452927 C 36.101168,12.745298 35.164104,12.454 33.594429,12.454 h -0.002 -6.211302 v 13.771389 h 6.211297 0.002 c 1.569675,0 2.506739,-0.290105 3.245404,-0.988012 0.723694,-0.680924 0.996948,-1.574254 0.996948,-3.140024 v -5.512892 c 0,-1.568196 -0.273254,-2.457878 -0.996948,-3.131534 z m -1.270216,8.228116 c 0,1.280523 -0.08224,1.708961 -0.426729,2.065817 -0.336892,0.330147 -0.734925,0.407837 -2.116185,0.407837 h -3.377661 v -9.630012 h 3.377661 c 1.38126,0 1.780539,0.08504 2.116185,0.410263 0.343136,0.349544 0.426729,0.781654 0.426729,2.068234 z"
   id="path900"
   style="fill:#ffffff;stroke-width:1.23065" />
    <path
   id="polygon902"
   d="M 48.526259,14.524685 V 12.454 h -8.95885 v 2.070685 h 3.346473 v 9.630012 h -3.346473 v 2.070692 h 8.95885 V 24.154697 H 45.1798 v -9.630012 z"
   style="fill:#ffffff;stroke-width:1.23065" />
    <path
   d="M 60.664373,18.649052 58.012912,13.060899 C 57.855696,12.701617 57.49759,12.454 57.080845,12.454 c -0.01369,0 -2.818674,0 -2.831152,0 -0.416745,0 -0.774851,0.247617 -0.933313,0.606899 l -2.650228,5.588153 c -0.137256,0.292536 -0.229587,0.625107 -0.229587,0.969784 v 6.606553 h 2.267164 v -3.779668 h 5.920573 v 3.779668 h 2.26592 v -6.606553 c 0.002,-0.345895 -0.08851,-0.677248 -0.225849,-0.969784 z m -2.038823,1.724767 h -5.920575 v -0.893333 l 2.400671,-4.955801 h 1.119233 l 2.400671,4.955801 z"
   id="path904"
   style="fill:#ffffff;stroke-width:1.23065" />
    <path
   id="polygon906"
   d="m 36.428075,36.036244 -5.921822,-6.896633 h -2.265918 v 13.770171 h 2.265918 V 32.228636 l 5.921822,6.897849 v 3.783297 h 2.267163 V 29.139611 h -2.267163 z"
   style="fill:#ffffff;stroke-width:1.23065" />
    <path
   d="m 57.617369,35.03973 c -1.608353,-0.674851 -3.310285,-1.296281 -3.310285,-2.400836 0,-0.759794 0.606406,-1.429794 1.370039,-1.429794 h 3.111886 c 0.766114,0 1.37252,0.603246 1.37252,1.335143 v 0.361684 h 2.225991 v -0.29008 c 0,-1.91411 -1.615833,-3.475017 -3.599757,-3.475017 h -3.022047 c -1.97894,0 -3.588541,1.571846 -3.588541,3.499282 0,2.46759 2.678925,3.485956 4.770151,4.371996 1.609601,0.674867 3.311533,1.2963 3.311533,2.400827 0,0.759808 -0.606406,1.428599 -1.371274,1.428599 h -3.111897 c -0.764867,0 -1.37252,-0.602014 -1.37252,-1.333907 v -0.361724 h -2.227239 v 0.29008 c 0,1.914109 1.617093,3.475017 3.599759,3.475017 h 3.022059 c 1.978926,0 3.588527,-1.571823 3.588527,-3.499283 10e-4,-2.468786 -2.677676,-3.487149 -4.768905,-4.371987 z"
   id="path908"
   style="fill:#ffffff;stroke-width:1.23065" />
    <path
   id="polygon910"
   d="m 45.455548,35.95127 6.034122,-6.811659 h -2.970889 l -4.886192,5.850377 v -5.850377 h -2.267164 v 13.770171 h 2.267164 v -5.849129 l 5.098304,5.849129 h 3.034525 z"
   style="fill:#ffffff;stroke-width:1.23065" />
    <path
   id="polyline912"
   d="M 10.454904,15.939931 7.2793759,20.373819 H 5.4414398 L 2.2659145,15.939931 V 26.225389 H 0 V 12.454 H 2.2659145 L 6.3622797,18.170822 10.454904,12.454 h 2.267165 V 26.225389 H 10.454904 V 15.939931"
   style="fill:#ffffff;stroke-width:1.23065" />
    <path
   id="polyline914"
   d="m 10.454904,32.625573 -3.1755281,4.43508 H 5.4414398 L 2.2659145,32.625573 V 42.909782 H 0 V 29.139611 h 2.2659145 l 4.0963652,5.716847 4.0926243,-5.716847 h 2.267165 V 42.909782 H 10.454904 V 32.625573"
   style="fill:#ffffff;stroke-width:1.23065" />
  </g>
</svg>
